<?xml version="1.0"?>
<svg xmlns="http://www.w3.org/2000/svg" viewBox="0 0 280 340">
  <clipPath id="stampClipR"><rect x="16" y="16" width="248" height="220" rx="4"></rect></clipPath>
  <rect x="8" y="8" width="264" height="324" rx="16" fill="#1A0F0C"></rect>
  <g clip-path="url(#stampClipR)">
    <rect x="16" y="16" width="248" height="78" fill="#B8D0E0"></rect>
    <rect x="16" y="16" width="248" height="40" fill="#8BAEC8" opacity=".5"></rect>
    <path d="M 16 16 L 108 94 L 16 116 Z" fill="#E0A068"></path>
    <path d="M 16 16 L 108 94 L 88 104 L 16 78 Z" fill="#C87848"></path>
    <path d="M 108 94 L 88 104 L 16 208 L 16 236 L 68 236 L 112 208 Z" fill="#A05530"></path>
    <path d="M 88 104 L 16 178 L 16 236 L 52 236 L 92 198 Z" fill="#6B3820"></path>
    <path d="M 16 156 L 16 236 L 40 236 L 78 218 L 70 158 Z" fill="#2E1A12"></path>
    <path d="M 264 16 L 172 94 L 264 116 Z" fill="#E0A068"></path>
    <path d="M 264 16 L 172 94 L 192 104 L 264 78 Z" fill="#C87848"></path>
    <path d="M 172 94 L 192 104 L 264 208 L 264 236 L 212 236 L 168 208 Z" fill="#A05530"></path>
    <path d="M 192 104 L 264 178 L 264 236 L 228 236 L 188 198 Z" fill="#6B3820"></path>
    <path d="M 264 156 L 264 236 L 240 236 L 202 218 L 210 158 Z" fill="#2E1A12"></path>
    <path d="M 112 208 L 108 94 L 140 96 L 172 94 L 168 208 Z" fill="#C87848" opacity=".7"></path>
    <path d="M 92 198 L 140 96 L 188 198 L 180 236 L 100 236 Z" fill="#A05530" opacity=".8"></path>
    <path d="M 136 96 L 144 96 L 150 138 L 130 138 Z" fill="#3A78AA" opacity=".9"></path>
    <path d="M 130 138 L 150 138 L 158 193 L 122 193 Z" fill="#3A78AA"></path>
    <path d="M 122 193 L 158 193 L 166 236 L 114 236 Z" fill="#1A4A7A"></path>
    <rect x="16" y="16" width="70" height="14" fill="#1A0F0C" opacity=".7"></rect>
    <rect x="194" y="16" width="70" height="14" fill="#1A0F0C" opacity=".7"></rect>
  </g>
  <rect x="16" y="236" width="248" height="88" fill="#1A0F0C"></rect>
  <rect x="16" y="16" width="248" height="308" rx="10" fill="none" stroke="#F0660A" stroke-width="1.8"></rect>
  <text x="140" y="272" text-anchor="middle" font-family="Archivo Black, sans-serif" font-size="36" fill="#F2ECE3" letter-spacing="1">CANYON</text>
  <text x="140" y="292" text-anchor="middle" font-family="JetBrains Mono, monospace" font-weight="700" font-size="9" fill="#F0660A" letter-spacing="5">GAME STUDIO</text>
  <text x="140" y="310" text-anchor="middle" font-family="JetBrains Mono, monospace" font-size="8" fill="#F0660A" opacity=".6">✦</text>
</svg>