<?xml version="1.0"?>
<svg xmlns="http://www.w3.org/2000/svg" viewBox="0 0 260 300">
  <clipPath id="markSqFav"><rect x="6" y="6" width="248" height="288" rx="12"></rect></clipPath>
  <rect x="2" y="2" width="256" height="296" rx="16" fill="#1A0F0C"></rect>
  <g clip-path="url(#markSqFav)">
    <rect x="6" y="6" width="248" height="90" fill="#B8D0E0"></rect>
    <path d="M 6 6 L 112 100 L 6 122 Z" fill="#E0A068"></path>
    <path d="M 112 100 L 92 110 L 6 220 L 6 294 L 58 294 L 114 220 Z" fill="#A05530"></path>
    <path d="M 6 162 L 6 294 L 40 294 L 76 226 L 68 164 Z" fill="#2E1A12"></path>
    <path d="M 254 6 L 148 100 L 254 122 Z" fill="#E0A068"></path>
    <path d="M 148 100 L 168 110 L 254 220 L 254 294 L 202 294 L 146 220 Z" fill="#A05530"></path>
    <path d="M 254 162 L 254 294 L 220 294 L 184 226 L 192 164 Z" fill="#2E1A12"></path>
    <path d="M 114 220 L 112 100 L 130 102 L 148 100 L 146 220 Z" fill="#C87848" opacity=".7"></path>
    <path d="M 92 208 L 130 102 L 168 208 L 160 294 L 100 294 Z" fill="#A05530" opacity=".8"></path>
    <path d="M 126 102 L 134 102 L 140 150 L 120 150 Z" fill="#3A78AA" opacity=".9"></path>
    <path d="M 112 210 L 148 210 L 156 294 L 104 294 Z" fill="#1A4A7A"></path>
  </g>
</svg>